<?xml version="1.0" encoding="utf-8"?>
<!-- Generator: Adobe Illustrator 22.0.1, SVG Export Plug-In . SVG Version: 6.00 Build 0)  -->
<svg version="1.1" id="Layer_1" xmlns="http://www.w3.org/2000/svg" xmlns:xlink="http://www.w3.org/1999/xlink" x="0px" y="0px"
	 viewBox="0 0 130 21" style="enable-background:new 0 0 130 21;" xml:space="preserve">
<style type="text/css">
	.st0{fill:#282828;}
</style>
<title>search-by-algolia-white</title>
<path class="st0" d="M96.7,15.6c0,1.7-0.4,3-1.3,3.8c-0.9,0.8-2.2,1.2-4.1,1.2c-0.7,0-2.1-0.1-3.2-0.4l0.4-2
	c0.9,0.2,2.2,0.2,2.8,0.2c1,0,1.7-0.2,2.2-0.6c0.4-0.4,0.6-1,0.6-1.8v-0.4c-0.3,0.1-0.7,0.3-1,0.4c-0.4,0.1-0.9,0.2-1.4,0.2
	c-0.7,0-1.3-0.1-1.9-0.3c-0.6-0.2-1.1-0.5-1.5-1c-0.4-0.5-0.8-1-1-1.6c-0.2-0.6-0.3-1.8-0.3-2.6c0-0.8,0.1-1.8,0.4-2.4
	C87.6,7.5,88,7,88.5,6.5c0.5-0.5,1-0.8,1.7-1.1C90.9,5.1,91.7,5,92.5,5c0.8,0,1.6,0.1,2.3,0.2c0.6,0.1,1.3,0.2,1.9,0.4L96.7,15.6
	L96.7,15.6L96.7,15.6z M89.6,10.6c0,1.1,0.2,2.2,0.7,2.7c0.5,0.5,1.1,0.7,1.8,0.7c0.4,0,0.8-0.1,1.1-0.2s0.6-0.2,0.9-0.4V7.2
	C94,7.2,93.2,7,92.5,7c-0.9,0-1.6,0.3-2.1,0.9C89.9,8.6,89.6,9.6,89.6,10.6z M108.7,10.6c0,0.7-0.1,1.5-0.4,2.2
	c-0.2,0.7-0.6,1.3-1.1,1.8c-0.5,0.5-1,0.9-1.7,1.2c-0.6,0.3-1.6,0.4-2.1,0.4c-0.5,0-1.5-0.1-2.1-0.4c-0.6-0.3-1.2-0.7-1.7-1.2
	c-0.5-0.5-0.8-1.1-1.1-1.8c-0.3-0.7-0.4-1.4-0.4-2.2c0-0.9,0.1-1.7,0.4-2.4c0.2-0.7,0.6-1.3,1.1-1.8c0.5-0.5,1-0.9,1.7-1.1
	c0.6-0.3,1.3-0.4,2.1-0.4s1.5,0.1,2.1,0.4c0.6,0.3,1.2,0.7,1.7,1.1c0.5,0.5,0.8,1.1,1.1,1.8C108.5,8.9,108.7,9.7,108.7,10.6
	C108.7,10.6,108.7,10.6,108.7,10.6z M106.1,10.6c0-1.1-0.2-2-0.7-2.6c-0.5-0.6-1.1-1-2-1c-0.8,0-1.5,0.3-2,1
	c-0.5,0.6-0.7,1.5-0.7,2.6c0,1.1,0.2,1.8,0.7,2.5c0.5,0.6,1.1,1,2,1s1.5-0.3,2-1C105.9,12.4,106.1,11.7,106.1,10.6L106.1,10.6
	L106.1,10.6z M114.3,16.2c-4.2,0-4.2-3.3-4.2-3.9l0-11.9l2.5-0.4v11.8c0,0.3,0,2.2,1.6,2.2L114.3,16.2
	C114.3,16.2,114.3,16.2,114.3,16.2z M118.8,16.2h-2.5V5.3l2.5-0.4V16.2L118.8,16.2z M117.5,3.7c0.8,0,1.5-0.7,1.5-1.5
	c0-0.8-0.7-1.5-1.5-1.5c0,0,0,0,0,0c-0.8,0-1.5,0.7-1.5,1.5c0,0,0,0,0,0C116,3,116.7,3.7,117.5,3.7L117.5,3.7z M125.1,4.9
	c0.8,0,1.5,0.1,2.1,0.3c0.6,0.2,1,0.5,1.4,0.9c0.3,0.4,0.6,0.9,0.7,1.4c0.1,0.5,0.2,1.1,0.2,1.7v6.5c-0.4,0.1-1,0.2-1.8,0.3
	c-0.8,0.1-1.7,0.2-2.7,0.2c-0.6,0-1.2-0.1-1.8-0.2c-0.5-0.1-1-0.3-1.4-0.6c-0.4-0.3-0.7-0.6-0.9-1.1c-0.2-0.4-0.3-1.1-0.3-1.7
	c0-0.6,0.1-1,0.4-1.4c0.2-0.4,0.6-0.8,1-1c0.4-0.3,0.9-0.5,1.4-0.6c0.6-0.1,1.1-0.2,1.7-0.2c0.3,0,0.6,0,0.9,0.1
	c0.3,0,0.6,0.1,1,0.2V9.2c0-0.3,0-0.6-0.1-0.8c-0.1-0.3-0.2-0.5-0.4-0.7c-0.2-0.2-0.4-0.4-0.7-0.5c-0.3-0.1-0.7-0.2-1.1-0.2
	c-0.6,0-1.1,0.1-1.6,0.2c-0.4,0.1-0.8,0.2-1.2,0.3l-0.3-2.1c0.3-0.1,0.8-0.2,1.4-0.3C123.8,5,124.4,4.9,125.1,4.9
	C125.1,4.9,125.1,4.9,125.1,4.9z M125.3,14c0.8,0,1.4,0,1.8-0.1v-2.6c-0.5-0.1-1-0.2-1.5-0.2c-0.3,0-0.6,0-0.8,0.1
	c-0.3,0-0.5,0.1-0.8,0.2c-0.2,0.1-0.4,0.3-0.6,0.5c-0.1,0.2-0.2,0.3-0.2,0.6c0,0.6,0.2,0.9,0.6,1.2C124.2,13.9,124.7,14,125.3,14
	L125.3,14z M75.3,5c0.8,0,1.5,0.1,2.1,0.3c0.6,0.2,1,0.5,1.4,0.9c0.3,0.4,0.6,0.9,0.7,1.4c0.2,0.6,0.2,1.2,0.2,1.7v6.5
	c-0.4,0.1-1,0.2-1.8,0.3c-0.8,0.1-1.7,0.2-2.7,0.2c-0.6,0-1.2-0.1-1.8-0.2c-0.5-0.1-1-0.3-1.4-0.6c-0.4-0.3-0.7-0.6-0.9-1.1
	c-0.2-0.4-0.3-1.1-0.3-1.7c0-0.6,0.1-1,0.4-1.4c0.2-0.4,0.6-0.8,1-1c0.4-0.3,0.9-0.5,1.4-0.6c0.6-0.1,1.1-0.2,1.7-0.2
	c0.3,0,0.6,0,0.9,0.1c0.3,0,0.6,0.1,1,0.2V9.3c0-0.3,0-0.6-0.1-0.8c-0.1-0.3-0.2-0.5-0.4-0.7c-0.2-0.2-0.4-0.4-0.7-0.5
	c-0.3-0.1-0.7-0.2-1.1-0.2c-0.5,0-1.1,0.1-1.6,0.2c-0.4,0.1-0.8,0.2-1.2,0.3L72,5.5c0.3-0.1,0.8-0.2,1.4-0.3C74,5,74.7,5,75.3,5
	L75.3,5z M75.6,14.1c0.8,0,1.4,0,1.8-0.1v-2.6c-0.5-0.1-1-0.2-1.5-0.2c-0.3,0-0.6,0-0.8,0.1c-0.3,0-0.5,0.1-0.8,0.2
	c-0.2,0.1-0.4,0.3-0.6,0.5c-0.1,0.2-0.2,0.3-0.2,0.6c0,0.6,0.2,0.9,0.6,1.2C74.4,14,74.9,14.1,75.6,14.1
	C75.5,14.1,75.6,14.1,75.6,14.1z M85.8,16.2c-4.1,0-4.1-3.3-4.1-3.9l0-11.9L84.2,0v11.8c0,0.3,0,2.2,1.6,2.2L85.8,16.2L85.8,16.2
	L85.8,16.2z M6.5,12.7c0,0.9-0.3,1.6-1,2.1c-0.7,0.5-1.6,0.8-2.7,0.8c-1.2,0-2.1-0.2-2.8-0.5v-1.6c0.5,0.2,1,0.4,1.5,0.5
	c0.5,0.1,1,0.2,1.5,0.2c0.7,0,1.1-0.1,1.5-0.4c0.3-0.3,0.5-0.6,0.5-1c0-0.4-0.2-0.7-0.4-1c-0.3-0.3-0.9-0.6-1.8-0.9
	c-0.9-0.4-1.6-0.8-2-1.3C0.3,9.1,0.1,8.6,0.1,7.9c0-0.9,0.3-1.5,0.9-2s1.4-0.7,2.4-0.7c1,0,1.9,0.2,2.9,0.6L5.8,7.1
	C4.9,6.8,4.1,6.6,3.4,6.6c-0.5,0-0.9,0.1-1.2,0.4C1.9,7.2,1.8,7.5,1.8,7.9c0,0.3,0.1,0.5,0.2,0.7C2,8.7,2.2,8.9,2.5,9.1
	c0.3,0.2,0.7,0.4,1.4,0.7c0.7,0.3,1.3,0.6,1.6,0.9c0.3,0.3,0.6,0.6,0.8,0.9C6.4,11.9,6.5,12.3,6.5,12.7C6.5,12.7,6.5,12.7,6.5,12.7z
	 M11.7,15.6c-1.2,0-2.1-0.4-2.8-1.1s-1-1.7-1-2.9c0-1.3,0.3-2.2,0.9-3c0.6-0.7,1.5-1.1,2.6-1.1c1,0,1.8,0.3,2.4,0.9
	c0.6,0.6,0.9,1.5,0.9,2.6V12H9.5c0,0.7,0.2,1.3,0.6,1.7c0.4,0.4,0.9,0.6,1.6,0.6c0.5,0,0.9,0,1.3-0.1c0.4-0.1,0.9-0.2,1.3-0.4v1.3
	c-0.4,0.2-0.8,0.3-1.2,0.4C12.6,15.6,12.2,15.6,11.7,15.6L11.7,15.6L11.7,15.6z M11.4,8.9c-0.5,0-0.9,0.2-1.3,0.5
	c-0.3,0.3-0.5,0.8-0.6,1.4h3.5c0-0.6-0.2-1.1-0.5-1.4C12.3,9,11.9,8.9,11.4,8.9z M21.4,15.5L21,14.4H21c-0.4,0.5-0.7,0.8-1.1,1
	c-0.4,0.2-0.9,0.3-1.5,0.3c-0.8,0-1.3-0.2-1.8-0.6c-0.4-0.4-0.6-1-0.6-1.7c0-0.8,0.3-1.4,0.9-1.8c0.6-0.4,1.5-0.6,2.7-0.7l1.3,0
	v-0.4c0-0.5-0.1-0.9-0.3-1.1C20.3,9,20,8.9,19.5,8.9c-0.4,0-0.8,0.1-1.1,0.2c-0.4,0.1-0.7,0.3-1,0.4l-0.5-1.2
	c0.4-0.2,0.9-0.4,1.4-0.5c0.5-0.1,1-0.2,1.4-0.2c1,0,1.7,0.2,2.2,0.6c0.5,0.4,0.8,1.1,0.8,2v5.2H21.4L21.4,15.5z M18.9,14.4
	c0.6,0,1.1-0.2,1.4-0.5c0.4-0.3,0.5-0.8,0.5-1.4v-0.7l-1,0c-0.8,0-1.3,0.2-1.7,0.4c-0.4,0.2-0.5,0.6-0.5,1.1c0,0.3,0.1,0.6,0.3,0.8
	C18.2,14.3,18.5,14.4,18.9,14.4L18.9,14.4z M28.7,7.6c0.3,0,0.6,0,0.8,0.1l-0.2,1.5c-0.2-0.1-0.5-0.1-0.7-0.1
	c-0.7,0-1.2,0.2-1.6,0.6c-0.4,0.4-0.6,1-0.6,1.7v4h-1.6V7.8h1.3l0.2,1.4h0.1c0.3-0.5,0.6-0.8,1-1.1C27.8,7.8,28.3,7.6,28.7,7.6
	L28.7,7.6L28.7,7.6z M34.1,15.6c-1.2,0-2.1-0.3-2.7-1c-0.6-0.7-0.9-1.7-0.9-2.9c0-1.3,0.3-2.3,1-3c0.6-0.7,1.5-1,2.8-1
	c0.8,0,1.5,0.2,2.2,0.5l-0.5,1.3C35.2,9.1,34.7,9,34.2,9c-1.3,0-2,0.9-2,2.7c0,0.9,0.2,1.5,0.5,1.9c0.3,0.4,0.8,0.7,1.5,0.7
	c0.7,0,1.4-0.2,2.1-0.5v1.4c-0.3,0.2-0.6,0.3-0.9,0.4C34.9,15.6,34.5,15.6,34.1,15.6L34.1,15.6L34.1,15.6z M44.8,15.5h-1.6v-4.7
	c0-0.6-0.1-1-0.4-1.3C42.6,9.1,42.2,9,41.7,9c-0.7,0-1.2,0.2-1.5,0.6c-0.3,0.4-0.5,1.1-0.5,2.1v3.8H38V4.6h1.6v2.8
	c0,0.4,0,0.9-0.1,1.4h0.1c0.2-0.4,0.5-0.7,0.9-0.9C41,7.7,41.5,7.6,42,7.6c1.9,0,2.8,0.9,2.8,2.8V15.5L44.8,15.5L44.8,15.5z
	 M54.8,7.6c1,0,1.7,0.3,2.2,1c0.5,0.7,0.8,1.7,0.8,2.9c0,1.3-0.3,2.2-0.8,3c-0.5,0.7-1.3,1.1-2.3,1.1c-1,0-1.7-0.4-2.3-1.1h-0.1
	L52,15.5h-1.2V4.6h1.6v2.6c0,0.2,0,0.5,0,0.8l0,0.7h0.1C53,8,53.7,7.6,54.8,7.6L54.8,7.6z M54.3,9c-0.7,0-1.1,0.2-1.4,0.6
	c-0.3,0.4-0.4,1-0.5,1.9v0.1c0,0.9,0.2,1.6,0.4,2c0.3,0.4,0.8,0.6,1.5,0.6c0.6,0,1-0.2,1.3-0.7c0.3-0.5,0.5-1.1,0.5-2
	C56.1,9.8,55.5,9,54.3,9L54.3,9z M58.5,7.8h1.8l1.6,4.4c0.2,0.6,0.4,1.2,0.5,1.8h0.1c0-0.3,0.1-0.6,0.2-0.9c0.1-0.4,0.7-2.1,1.8-5.2
	h1.8l-3.3,8.7c-0.6,1.6-1.6,2.4-3,2.4c-0.4,0-0.7,0-1.1-0.1v-1.3c0.2,0.1,0.5,0.1,0.8,0.1c0.8,0,1.3-0.5,1.7-1.4l0.3-0.7L58.5,7.8
	L58.5,7.8L58.5,7.8z"/>
</svg>
