<?xml version="1.0" standalone="no"?><!DOCTYPE svg PUBLIC "-//W3C//DTD SVG 1.1//EN" "http://www.w3.org/Graphics/SVG/1.1/DTD/svg11.dtd"><svg width="100%" height="100%" viewBox="0 0 300 37" version="1.1" xmlns="http://www.w3.org/2000/svg" xmlns:xlink="http://www.w3.org/1999/xlink" xml:space="preserve" style="fill-rule:evenodd;clip-rule:evenodd;stroke-linejoin:round;stroke-miterlimit:1.41421;"><path d="M25.663,36.114l0,-21.05l-6.897,13.697l-4.766,0l-6.953,-13.697l0,21.05l-7.047,0l0,-36.112l6.95,0l9.431,19.521l9.388,-19.521l6.944,0l0,36.112l-7.05,0Z" style="fill:#fff;fill-rule:nonzero;"/><path d="M46.863,36.114l0,-36.112l23.784,0l0,6.29l-16.738,0l0,8.466l14.254,0l0,6.294l-14.254,0l0,8.775l16.738,0l0,6.287l-23.784,0Z" style="fill:#fff;fill-rule:nonzero;"/><path d="M98.119,6.292l0,29.822l-7.056,0l0,-29.822l-9.432,0l0,-6.29l25.922,0l0,6.29l-9.434,0Z" style="fill:#fff;fill-rule:nonzero;"/><path d="M137.019,36.114l-2.128,-6.394l-12.832,0l-2.184,6.394l-7.356,0l13.144,-36.112l5.528,0l13.187,36.112l-7.359,0ZM128.603,10.648l-4.569,13.138l8.972,0l-4.403,-13.138Z" style="fill:#fff;fill-rule:nonzero;"/><path d="M201.747,36.116l0,-36.116l7.046,0l0,29.822l16.379,0l0,6.294l-23.425,0Z" style="fill:#fff;fill-rule:nonzero;"/><path d="M257.125,36.116l-2.135,-6.397l-12.825,0l-2.181,6.397l-7.356,0l13.137,-36.116l5.531,0l13.185,36.116l-7.356,0ZM248.709,10.644l-4.562,13.143l8.971,0l-4.409,-13.143Z" style="fill:#fff;fill-rule:nonzero;"/><path d="M288.397,36.116l-15.116,0l0,-36.116l14.506,0c7.05,0 11.156,3.956 11.156,10.144c0,4.009 -2.64,6.593 -4.459,7.453c2.175,1.015 4.963,3.3 4.963,8.116c0,6.75 -4.61,10.403 -11.05,10.403ZM287.221,6.288l-6.89,0l0,8.321l6.89,0c3.001,0 4.672,-1.681 4.672,-4.162c0,-2.484 -1.671,-4.159 -4.672,-4.159ZM287.684,20.947l-7.353,0l0,8.875l7.353,0c3.2,0 4.719,-2.025 4.719,-4.466c0,-2.431 -1.519,-4.409 -4.719,-4.409Z" style="fill:#fff;fill-rule:nonzero;"/><path d="M172.793,19.948l0,14.86l-3.859,0l0,-14.86l-14.866,0l0,-3.862l14.866,0l0,-14.778l3.859,0l0,14.778l14.775,0l0,3.862l-14.775,0Z" style="fill:#d1202f;fill-rule:nonzero;"/></svg>